<svg xmlns="http://www.w3.org/2000/svg" width="1200" height="1200" viewBox="0 0 1200 1200">
  <defs>
    <filter id="sepia">
      <feColorMatrix type="matrix" values="0.393 0.769 0.189 0 0 0.349 0.686 0.168 0 0 0.272 0.534 0.131 0 0 0 0 0 1 0" />
    </filter>
    <filter id="soft-light">
      <feGaussianBlur stdDeviation="5" />
      <feComponentTransfer>
        <feFuncA type="linear" slope="0.05" />
      </feComponentTransfer>
    </filter>
  </defs>
  
  <!-- Mona Lisa -->
  <g transform="translate(100, 100)" opacity="0.08" filter="url(#sepia)">
    <rect x="0" y="0" width="300" height="400" fill="#A47551" />
    <ellipse cx="150" cy="120" rx="80" ry="100" fill="#D6D2B8" />
    <rect x="110" y="80" width="80" height="30" rx="15" fill="#8D6748" />
    <rect x="130" y="120" width="40" height="10" rx="5" fill="#8D6748" />
    <path d="M110,170 Q150,200 190,170" fill="none" stroke="#8D6748" stroke-width="2" />
    <rect x="70" y="220" width="160" height="160" rx="80" fill="#D6D2B8" />
  </g>
  
  <!-- Vitruvian Man -->
  <g transform="translate(500, 150)" opacity="0.08" filter="url(#sepia)">
    <circle cx="150" cy="150" r="150" fill="none" stroke="#A47551" stroke-width="2" />
    <rect x="0" y="0" width="300" height="300" fill="none" stroke="#A47551" stroke-width="2" />
    <circle cx="150" cy="150" r="50" fill="#D6D2B8" />
    <line x1="0" y1="150" x2="300" y2="150" stroke="#8D6748" stroke-width="1" />
    <line x1="150" y1="0" x2="150" y2="300" stroke="#8D6748" stroke-width="1" />
    <line x1="50" y1="50" x2="250" y2="250" stroke="#8D6748" stroke-width="1" />
    <line x1="250" y1="50" x2="50" y2="250" stroke="#8D6748" stroke-width="1" />
  </g>
  
  <!-- The Creation of Adam -->
  <g transform="translate(800, 100)" opacity="0.08" filter="url(#sepia)">
    <rect x="0" y="0" width="300" height="150" fill="#D6D2B8" />
    <ellipse cx="75" cy="75" rx="50" ry="40" fill="#A47551" opacity="0.5" />
    <ellipse cx="225" cy="75" rx="50" ry="40" fill="#A47551" opacity="0.5" />
    <line x1="125" y1="75" x2="175" y2="75" stroke="#8D6748" stroke-width="3" />
  </g>
  
  <!-- The Birth of Venus -->
  <g transform="translate(100, 600)" opacity="0.08" filter="url(#sepia)">
    <rect x="0" y="0" width="400" height="200" fill="#D6D2B8" />
    <ellipse cx="200" cy="100" rx="60" ry="80" fill="#A47551" opacity="0.5" />
    <path d="M140,100 Q200,50 260,100" fill="none" stroke="#8D6748" stroke-width="2" />
    <ellipse cx="100" cy="100" rx="30" ry="40" fill="#A47551" opacity="0.3" />
    <ellipse cx="300" cy="100" rx="30" ry="40" fill="#A47551" opacity="0.3" />
  </g>
  
  <!-- The Last Supper -->
  <g transform="translate(600, 600)" opacity="0.08" filter="url(#sepia)">
    <rect x="0" y="0" width="500" height="200" fill="#D6D2B8" />
    <rect x="50" y="50" width="400" height="100" fill="#A47551" opacity="0.3" />
    <rect x="200" y="20" width="100" height="160" fill="#A47551" opacity="0.5" />
    <circle cx="250" cy="70" r="30" fill="#D6D2B8" />
    <circle cx="250" cy="70" r="20" fill="#A47551" opacity="0.3" />
  </g>
  
  <!-- School of Athens -->
  <g transform="translate(200, 900)" opacity="0.08" filter="url(#sepia)">
    <rect x="0" y="0" width="800" height="250" fill="#D6D2B8" />
    <rect x="300" y="0" width="200" height="250" fill="#A47551" opacity="0.1" />
    <circle cx="400" cy="125" r="100" fill="none" stroke="#8D6748" stroke-width="2" />
    <line x1="350" y1="75" x2="450" y2="175" stroke="#8D6748" stroke-width="2" />
    <line x1="450" y1="75" x2="350" y2="175" stroke="#8D6748" stroke-width="2" />
  </g>
  
  <!-- Additional decorative elements -->
  <g filter="url(#soft-light)">
    <circle cx="300" cy="300" r="200" fill="#F6E7B3" opacity="0.2" />
    <circle cx="900" cy="400" r="150" fill="#BFA181" opacity="0.2" />
    <circle cx="500" cy="800" r="250" fill="#D6D2B8" opacity="0.2" />
    <circle cx="1000" cy="900" r="100" fill="#A47551" opacity="0.2" />
  </g>
</svg> 