<?xml version="1.0" encoding="UTF-8" standalone="no"?>
<svg xmlns="http://www.w3.org/2000/svg" width="800" height="600" viewBox="0 0 800 600">
  <!-- Renaissance Manuscript with Old Text and Diagrams -->
  
  <!-- Definitions for reusable elements -->
  <defs>
    <!-- Parchment texture pattern -->
    <pattern id="parchment-texture" patternUnits="userSpaceOnUse" width="200" height="200">
      <rect width="200" height="200" fill="#f5f0e5"/>
      <path d="M0,0 L200,200 M50,0 L0,50 M150,0 L0,150 M200,0 L0,200 M200,50 L50,200 M200,150 L150,200" 
            stroke="#e0d8c0" stroke-width="1" stroke-opacity="0.4"/>
      <path d="M20,20 C40,10 60,30 80,20 C100,10 120,30 140,20 C160,10 180,30 200,20" 
            stroke="#d0c8b0" stroke-width="1" stroke-opacity="0.3" fill="none"/>
      <path d="M20,60 C40,50 60,70 80,60 C100,50 120,70 140,60 C160,50 180,70 200,60" 
            stroke="#d0c8b0" stroke-width="1" stroke-opacity="0.3" fill="none"/>
      <path d="M20,100 C40,90 60,110 80,100 C100,90 120,110 140,100 C160,90 180,110 200,100" 
            stroke="#d0c8b0" stroke-width="1" stroke-opacity="0.3" fill="none"/>
      <path d="M20,140 C40,130 60,150 80,140 C100,130 120,150 140,140 C160,130 180,150 200,140" 
            stroke="#d0c8b0" stroke-width="1" stroke-opacity="0.3" fill="none"/>
      <path d="M20,180 C40,170 60,190 80,180 C100,170 120,190 140,180 C160,170 180,190 200,180" 
            stroke="#d0c8b0" stroke-width="1" stroke-opacity="0.3" fill="none"/>
    </pattern>
    
    <!-- Text line pattern -->
    <pattern id="text-line" patternUnits="userSpaceOnUse" width="300" height="10">
      <path d="M5,5 L20,5 M30,5 L40,5 M50,5 L70,5 M80,5 L100,5 M110,5 L130,5 M140,5 L150,5 M160,5 L190,5 M200,5 L220,5 M230,5 L250,5 M260,5 L280,5 M290,5 L300,5" 
            stroke="#8b7355" stroke-width="2" stroke-linecap="round"/>
    </pattern>
  </defs>
  
  <!-- Main manuscript -->
  <g id="manuscript">
    <!-- Background parchment -->
    <rect x="0" y="0" width="800" height="600" fill="url(#parchment-texture)"/>
    
    <!-- Text blocks -->
    <g id="text-block-1" transform="translate(50, 50)">
      <rect width="300" height="200" fill="url(#text-line)" opacity="0.7"/>
    </g>
    
    <g id="text-block-2" transform="translate(450, 50)">
      <rect width="300" height="100" fill="url(#text-line)" opacity="0.7"/>
    </g>
    
    <g id="text-block-3" transform="translate(50, 350)">
      <rect width="300" height="150" fill="url(#text-line)" opacity="0.7"/>
    </g>
    
    <!-- Vitruvian Man style diagram -->
    <g id="diagram-vitruvian" transform="translate(500, 250)">
      <circle cx="100" cy="100" r="100" fill="none" stroke="#8b7355" stroke-width="1"/>
      <rect x="0" y="0" width="200" height="200" fill="none" stroke="#8b7355" stroke-width="1"/>
      
      <!-- Simplified human figure -->
      <circle cx="100" cy="60" r="20" fill="none" stroke="#8b7355" stroke-width="1"/> <!-- head -->
      <line x1="100" y1="80" x2="100" y2="150" stroke="#8b7355" stroke-width="1"/> <!-- body -->
      <line x1="100" y1="100" x2="50" y2="90" stroke="#8b7355" stroke-width="1"/> <!-- left arm -->
      <line x1="100" y1="100" x2="150" y2="90" stroke="#8b7355" stroke-width="1"/> <!-- right arm -->
      <line x1="100" y1="150" x2="70" y2="190" stroke="#8b7355" stroke-width="1"/> <!-- left leg -->
      <line x1="100" y1="150" x2="130" y2="190" stroke="#8b7355" stroke-width="1"/> <!-- right leg -->
      
      <!-- Proportional lines -->
      <line x1="0" y1="60" x2="200" y2="60" stroke="#8b7355" stroke-width="0.5" stroke-dasharray="5,5"/>
      <line x1="0" y1="100" x2="200" y2="100" stroke="#8b7355" stroke-width="0.5" stroke-dasharray="5,5"/>
      <line x1="0" y1="150" x2="200" y2="150" stroke="#8b7355" stroke-width="0.5" stroke-dasharray="5,5"/>
      <line x1="50" y1="0" x2="50" y2="200" stroke="#8b7355" stroke-width="0.5" stroke-dasharray="5,5"/>
      <line x1="100" y1="0" x2="100" y2="200" stroke="#8b7355" stroke-width="0.5" stroke-dasharray="5,5"/>
      <line x1="150" y1="0" x2="150" y2="200" stroke="#8b7355" stroke-width="0.5" stroke-dasharray="5,5"/>
    </g>
    
    <!-- Architectural diagram -->
    <g id="diagram-architecture" transform="translate(100, 200)">
      <path d="M100,0 L200,50 L100,100 L0,50 Z" fill="none" stroke="#8b7355" stroke-width="1"/>
      <path d="M100,0 L100,100" stroke="#8b7355" stroke-width="0.5"/>
      <path d="M0,50 L200,50" stroke="#8b7355" stroke-width="0.5"/>
      <circle cx="100" cy="50" r="30" fill="none" stroke="#8b7355" stroke-width="0.5"/>
      <path d="M70,50 L130,50" stroke="#8b7355" stroke-width="0.5"/>
      <path d="M100,20 L100,80" stroke="#8b7355" stroke-width="0.5"/>
    </g>
    
    <!-- Decorative elements -->
    <g id="decorative-elements">
      <path d="M40,40 C60,20 80,20 100,40 S140,60 160,40" stroke="#8b7355" stroke-width="2" fill="none"/>
      <path d="M640,40 C660,20 680,20 700,40 S740,60 760,40" stroke="#8b7355" stroke-width="2" fill="none"/>
      <path d="M40,560 C60,540 80,540 100,560 S140,580 160,560" stroke="#8b7355" stroke-width="2" fill="none"/>
      <path d="M640,560 C660,540 680,540 700,560 S740,580 760,560" stroke="#8b7355" stroke-width="2" fill="none"/>
    </g>
  </g>
</svg> 