<?xml version="1.0" encoding="UTF-8" standalone="no"?>
<svg xmlns="http://www.w3.org/2000/svg" width="800" height="600" viewBox="0 0 800 600">
  <!-- Renaissance Window Frame with Arched Top -->
  
  <!-- Definitions for reusable elements -->
  <defs>
    <!-- Stone texture pattern -->
    <pattern id="stone-texture" patternUnits="userSpaceOnUse" width="100" height="100">
      <rect width="100" height="100" fill="#e8e0d0"/>
      <path d="M0,0 L100,100 M30,0 L0,30 M70,0 L0,70 M100,0 L0,100 M100,30 L30,100 M100,70 L70,100" 
            stroke="#d0c8b8" stroke-width="1" stroke-opacity="0.3"/>
    </pattern>
    
    <!-- Ornamental corner -->
    <g id="ornament-corner">
      <path d="M0,0 C10,-5 20,-10 30,0 C40,10 35,20 40,30 C30,25 20,20 10,30 C0,40 -5,20 0,0 Z" 
            fill="#c0a080" stroke="#8b7355" stroke-width="1"/>
      <path d="M15,15 C20,10 25,10 25,15 C25,20 20,20 15,15 Z" 
            fill="#8b7355" stroke="none"/>
    </g>
  </defs>
  
  <!-- Main window frame -->
  <g id="window-frame">
    <!-- Outer frame -->
    <path d="M50,50 H750 V450 Q400,650 50,450 Z" 
          fill="url(#stone-texture)" stroke="#8b7355" stroke-width="4"/>
    
    <!-- Inner frame -->
    <path d="M100,100 H700 V425 Q400,600 100,425 Z" 
          fill="none" stroke="#8b7355" stroke-width="8"/>
    
    <!-- Window dividers -->
    <path d="M400,100 V425" stroke="#8b7355" stroke-width="8" fill="none"/>
    <path d="M250,100 V400 Q325,450 400,425" stroke="#8b7355" stroke-width="4" fill="none"/>
    <path d="M550,100 V400 Q475,450 400,425" stroke="#8b7355" stroke-width="4" fill="none"/>
    
    <!-- Decorative arch -->
    <path d="M100,250 H700" stroke="#8b7355" stroke-width="4" fill="none"/>
    
    <!-- Ornamental corners -->
    <use href="#ornament-corner" transform="translate(100,100) scale(1.5)"/>
    <use href="#ornament-corner" transform="translate(700,100) scale(1.5) rotate(90)"/>
    <use href="#ornament-corner" transform="translate(100,425) scale(1.5) rotate(270)"/>
    <use href="#ornament-corner" transform="translate(700,425) scale(1.5) rotate(180)"/>
    
    <!-- Decorative medallion at top of arch -->
    <circle cx="400" cy="100" r="30" fill="#c0a080" stroke="#8b7355" stroke-width="2"/>
    <circle cx="400" cy="100" r="20" fill="none" stroke="#8b7355" stroke-width="1"/>
    <path d="M385,100 L415,100 M400,85 L400,115" stroke="#8b7355" stroke-width="1"/>
  </g>
</svg> 